<svg class="logo-icon" viewBox="0 0 100 100" fill="none" xmlns="http://www.w3.org/2000/svg">
    <!-- Bouclier principal -->
    <path d="M50 10L20 25V45C20 65 35 80 50 90C65 80 80 65 80 45V25L50 10Z"
          fill="url(#shield-gradient)" stroke="url(#border-gradient)" stroke-width="2"/>

    <!-- Icône d'erreur stylisée -->
    <circle cx="50" cy="35" r="3" fill="#ef4444"/>
    <rect x="47" y="45" width="6" height="20" rx="3" fill="#ef4444"/>
    <circle cx="50" cy="72" r="3" fill="#ef4444"/>

    <!-- Points de données -->
    <circle cx="35" cy="30" r="2" fill="rgba(255,255,255,0.6)"/>
    <circle cx="65" cy="30" r="2" fill="rgba(255,255,255,0.6)"/>
    <circle cx="30" cy="50" r="1.5" fill="rgba(255,255,255,0.4)"/>
    <circle cx="70" cy="50" r="1.5" fill="rgba(255,255,255,0.4)"/>

    <!-- Effet de brillance -->
    <path d="M25 20Q50 15 75 20Q70 35 50 40Q30 35 25 20Z"
          fill="url(#shine-gradient)" opacity="0.3"/>

    <defs>
        <linearGradient id="shield-gradient" x1="0%" y1="0%" x2="100%" y2="100%">
            <stop offset="0%" style="stop-color:#3b82f6"/>
            <stop offset="50%" style="stop-color:#1d4ed8"/>
            <stop offset="100%" style="stop-color:#1e40af"/>
        </linearGradient>
        <linearGradient id="border-gradient" x1="0%" y1="0%" x2="100%" y2="100%">
            <stop offset="0%" style="stop-color:#60a5fa"/>
            <stop offset="100%" style="stop-color:#3b82f6"/>
        </linearGradient>
        <linearGradient id="shine-gradient" x1="0%" y1="0%" x2="100%" y2="100%">
            <stop offset="0%" style="stop-color:#ffffff"/>
            <stop offset="100%" style="stop-color:#f0f9ff"/>
        </linearGradient>
    </defs>
</svg>
